<svg width="37" height="37" viewBox="0 0 37 37" fill="none" xmlns="http://www.w3.org/2000/svg">
<path d="M10.2 1.79999L0.200012 13.8H8.20001L18.2 0.799988L10.2 1.79999Z" fill="url(#paint0_linear_7_2380)"/>
<path d="M18.2 0.799988L8.20001 13.8H28.2L18.2 0.799988Z" fill="url(#paint1_linear_7_2380)"/>
<path d="M26.2 1.79921L36.2 13.7992H28.2L18.2 0.799988L26.2 1.79921Z" fill="url(#paint2_linear_7_2380)"/>
<path d="M18.2 36.8L0.200012 13.8001H8.20001L18.2 36.8Z" fill="url(#paint3_linear_7_2380)"/>
<path d="M28.2 13.8001H8.20001L18.2 36.8L28.2 13.8001Z" fill="url(#paint4_linear_7_2380)"/>
<path d="M18.2 36.8L36.2 13.8001H28.2L18.2 36.8Z" fill="url(#paint5_linear_7_2380)"/>
<defs>
<linearGradient id="paint0_linear_7_2380" x1="18.2" y1="0.799988" x2="0.200011" y2="13.8" gradientUnits="userSpaceOnUse">
<stop stop-color="#A9FF99"/>
<stop offset="0.666667" stop-color="#22D800"/>
<stop offset="1" stop-color="#1DBD00"/>
</linearGradient>
<linearGradient id="paint1_linear_7_2380" x1="18.2" y1="0.799988" x2="18.2" y2="13.8" gradientUnits="userSpaceOnUse">
<stop stop-color="#D1FFC9"/>
<stop offset="0.666667" stop-color="#74FF5A"/>
<stop offset="1" stop-color="#4AFF26"/>
</linearGradient>
<linearGradient id="paint2_linear_7_2380" x1="18.2" y1="0.799988" x2="36.2008" y2="13.799" gradientUnits="userSpaceOnUse">
<stop stop-color="#80FA69"/>
<stop offset="0.666667" stop-color="#22DD00"/>
<stop offset="1" stop-color="#1AA300"/>
</linearGradient>
<linearGradient id="paint3_linear_7_2380" x1="0.200012" y1="13.8001" x2="18.2" y2="37.8001" gradientUnits="userSpaceOnUse">
<stop stop-color="#87FF6F"/>
<stop offset="0.666667" stop-color="#48EC28"/>
<stop offset="1" stop-color="#1EB700"/>
</linearGradient>
<linearGradient id="paint4_linear_7_2380" x1="18.2" y1="13.8001" x2="15.7927" y2="37.5561" gradientUnits="userSpaceOnUse">
<stop stop-color="#BFFFB2"/>
<stop offset="0.666667" stop-color="#82FF69"/>
<stop offset="1" stop-color="#1EBB00"/>
</linearGradient>
<linearGradient id="paint5_linear_7_2380" x1="36.2" y1="13.8001" x2="18.2" y2="37.8001" gradientUnits="userSpaceOnUse">
<stop stop-color="#87FF6F"/>
<stop offset="0.333333" stop-color="#5FEE43"/>
<stop offset="1" stop-color="#1EB700"/>
</linearGradient>
</defs>
</svg>
